<svg width="96" height="97" xmlns="http://www.w3.org/2000/svg" xmlns:xlink="http://www.w3.org/1999/xlink" xml:space="preserve" overflow="hidden"><g transform="translate(-268 -464)"><g><g><g><g><path d="M356 539 356 537 349.414 537 354.707 531.707 353.293 530.293 346.586 537 346.563 537 316 486.571 285.437 537 285.414 537 278.707 530.293 277.293 531.707 282.586 537 276 537 276 539ZM335.548 537 317 506.4 317 492.115C317 492.095 317.008 492.093 317.019 492.115L344.224 537ZM317 510.256 333.209 537 317 537ZM315 492.115 315 537 287.776 537 314.981 492.11C314.992 492.093 315 492.1 315 492.115Z" stroke="#FFFFFF" stroke-width="1" stroke-linecap="butt" stroke-linejoin="miter" stroke-miterlimit="4" stroke-opacity="1" fill="#FFFFFF" fill-rule="nonzero" fill-opacity="1"/></g></g></g></g></g></svg>